<?xml version="1.0" encoding="UTF-8"?>
<svg version="1.1" xmlns="http://www.w3.org/2000/svg" width="612" height="408">
<path d="M0 0 C1.22244667 0.00333092 1.22244667 0.00333092 2.46958923 0.00672913 C3.85090782 0.00684242 3.85090782 0.00684242 5.26013184 0.00695801 C6.2611644 0.01211929 7.26219696 0.01728058 8.29356384 0.02259827 C9.31316696 0.02401321 10.33277008 0.02542816 11.38327026 0.02688599 C14.65417867 0.03250355 17.92501972 0.04505902 21.19590759 0.05775452 C23.40749515 0.06276725 25.61908377 0.06733055 27.83067322 0.07142639 C33.26494413 0.08247869 38.69916443 0.09975508 44.13340759 0.12025452 C44.13340759 3.75025452 44.13340759 7.38025452 44.13340759 11.12025452 C45.43278259 11.09962952 46.73215759 11.07900452 48.07090759 11.05775452 C49.42506393 11.03625997 50.78096842 11.04877253 52.13340759 11.12025452 C53.13340759 12.12025452 53.13340759 12.12025452 53.23106384 15.28041077 C53.21946228 16.5681842 53.20786072 17.85595764 53.19590759 19.18275452 C53.18688416 20.47310608 53.17786072 21.76345764 53.16856384 23.09291077 C53.15696228 24.0919342 53.14536072 25.09095764 53.13340759 26.12025452 C56.10340759 26.45025452 59.07340759 26.78025452 62.13340759 27.12025452 C62.13340759 29.76025452 62.13340759 32.40025452 62.13340759 35.12025452 C63.14661072 35.10285217 63.14661072 35.10285217 64.18028259 35.08509827 C65.07231384 35.07607483 65.96434509 35.06705139 66.88340759 35.05775452 C67.76512634 35.04615295 68.64684509 35.03455139 69.55528259 35.02259827 C72.13340759 35.12025452 72.13340759 35.12025452 76.13340759 36.12025452 C76.13340759 33.15025452 76.13340759 30.18025452 76.13340759 27.12025452 C79.10340759 27.12025452 82.07340759 27.12025452 85.13340759 27.12025452 C85.12180603 26.13283264 85.11020447 25.14541077 85.09825134 24.12806702 C85.08922791 22.84673889 85.08020447 21.56541077 85.07090759 20.24525452 C85.05930603 18.96908264 85.04770447 17.69291077 85.03575134 16.37806702 C85.13340759 13.12025452 85.13340759 13.12025452 86.13340759 11.12025452 C88.77340759 11.12025452 91.41340759 11.12025452 94.13340759 11.12025452 C94.13340759 7.49025452 94.13340759 3.86025452 94.13340759 0.12025452 C126.80340759 0.12025452 159.47340759 0.12025452 193.13340759 0.12025452 C193.13340759 19.59025452 193.13340759 39.06025452 193.13340759 59.12025452 C201.71340759 59.12025452 210.29340759 59.12025452 219.13340759 59.12025452 C219.12180603 56.28560608 219.11020447 53.45095764 219.09825134 50.53041077 C219.09040794 47.72352713 219.0843614 44.91664482 219.07847595 42.10975647 C219.07350906 40.18885229 219.06673329 38.26795176 219.05796814 36.34706116 C219.04556103 33.55400175 219.04010298 30.76099311 219.03575134 27.96791077 C219.03059006 27.13695389 219.02542877 26.30599701 219.02011108 25.44985962 C219.01934626 16.94820681 219.63087559 8.66329859 220.13340759 0.12025452 C251.81340759 0.12025452 283.49340759 0.12025452 316.13340759 0.12025452 C316.46340759 11.67025452 316.79340759 23.22025452 317.13340759 35.12025452 C318.78340759 35.12025452 320.43340759 35.12025452 322.13340759 35.12025452 C322.13340759 29.51025452 322.13340759 23.90025452 322.13340759 18.12025452 C324.44340759 18.12025452 326.75340759 18.12025452 329.13340759 18.12025452 C329.13340759 15.15025452 329.13340759 12.18025452 329.13340759 9.12025452 C331.77340759 9.12025452 334.41340759 9.12025452 337.13340759 9.12025452 C337.46340759 6.15025452 337.79340759 3.18025452 338.13340759 0.12025452 C345.3782731 0.09498713 352.62312733 0.07742271 359.86802673 0.06532288 C362.33482793 0.06028095 364.80162612 0.05344761 367.26841736 0.04481506 C370.80545288 0.03274327 374.34244905 0.02702496 377.87950134 0.02259827 C378.9899028 0.01743698 380.10030426 0.0122757 381.24435425 0.00695801 C382.77582848 0.00684471 382.77582848 0.00684471 384.33824158 0.00672913 C385.24203049 0.00450851 386.1458194 0.0022879 387.07699585 0 C389.13340759 0.12025452 389.13340759 0.12025452 390.13340759 1.12025452 C390.2345768 4.21106917 390.27309317 7.27908007 390.26622009 10.37025452 C390.26765518 11.76292542 390.26765518 11.76292542 390.26911926 13.18373108 C390.26980114 15.15085416 390.26794631 17.11797948 390.26377869 19.08509827 C390.25843054 22.10728478 390.26372342 25.12932266 390.27012634 28.15150452 C390.26946556 30.05775485 390.2681844 31.96400508 390.26622009 33.87025452 C390.26824432 34.78065491 390.27026855 35.6910553 390.27235413 36.62904358 C390.24835728 43.00530483 390.24835728 43.00530483 389.13340759 44.12025452 C386.13009741 44.26218789 383.14123625 44.1626183 380.13340759 44.12025452 C379.80340759 49.40025452 379.47340759 54.68025452 379.13340759 60.12025452 C376.82340759 60.12025452 374.51340759 60.12025452 372.13340759 60.12025452 C372.16434509 62.06931702 372.16434509 62.06931702 372.19590759 64.05775452 C372.21740214 65.41191085 372.20488958 66.76781534 372.13340759 68.12025452 C371.13340759 69.12025452 371.13340759 69.12025452 369.06700134 69.21791077 C365.60020447 69.16908264 365.60020447 69.16908264 362.13340759 69.12025452 C362.13340759 72.42025452 362.13340759 75.72025452 362.13340759 79.12025452 C359.49340759 79.12025452 356.85340759 79.12025452 354.13340759 79.12025452 C354.13340759 84.07025452 354.13340759 89.02025452 354.13340759 94.12025452 C355.43278259 94.09962952 356.73215759 94.07900452 358.07090759 94.05775452 C359.42506393 94.03625997 360.78096842 94.04877253 362.13340759 94.12025452 C363.13340759 95.12025452 363.13340759 95.12025452 363.23106384 98.49916077 C363.22439129 99.89372529 363.21243291 101.28827194 363.19590759 102.68275452 C363.19139587 103.39367249 363.18688416 104.10459045 363.18223572 104.83705139 C363.17041623 106.59815465 363.15248022 108.35921488 363.13340759 110.12025452 C363.89653259 109.93462952 364.65965759 109.74900452 365.44590759 109.55775452 C368.13340759 109.12025452 368.13340759 109.12025452 371.13340759 110.12025452 C372.48780427 112.82904787 372.1984221 115.12958719 372.13340759 118.12025452 C374.77340759 118.12025452 377.41340759 118.12025452 380.13340759 118.12025452 C380.13340759 123.73025452 380.13340759 129.34025452 380.13340759 135.12025452 C383.43340759 135.45025452 386.73340759 135.78025452 390.13340759 136.12025452 C390.18273134 143.48922236 390.21909089 150.85809478 390.24327087 158.22718811 C390.2533477 160.73566867 390.26700939 163.24413743 390.2842865 165.75257874 C390.30846096 169.35172939 390.31987371 172.95072518 390.32872009 176.54994202 C390.33904266 177.67705597 390.34936523 178.80416992 390.36000061 179.96543884 C390.36015167 181.00636688 390.36030273 182.04729492 390.36045837 183.11976624 C390.3648996 184.03909943 390.36934082 184.95843262 390.37391663 185.90562439 C390.13340759 188.12025452 390.13340759 188.12025452 388.13340759 190.12025452 C385.92550659 190.36749268 385.92550659 190.36749268 383.14878845 190.36317444 C382.1110881 190.36625107 381.07338776 190.3693277 380.00424194 190.37249756 C378.3182766 190.36171928 378.3182766 190.36171928 376.59825134 190.35072327 C375.44925858 190.35026505 374.30026581 190.34980682 373.11645508 190.34933472 C370.68451405 190.34630977 368.252575 190.33841631 365.82066345 190.32606506 C362.08304539 190.30781379 358.34567492 190.30555528 354.60801697 190.30580139 C352.25059294 190.30088623 349.89317059 190.29505792 347.53575134 190.28822327 C346.40975021 190.28711044 345.28374908 190.28599762 344.12362671 190.28485107 C343.08907852 190.27847122 342.05453033 190.27209137 340.9886322 190.26551819 C340.07311081 190.26170639 339.15758942 190.25789459 338.21432495 190.25396729 C336.13340759 190.12025452 336.13340759 190.12025452 335.13340759 189.12025452 C334.8009768 184.38800446 334.94447484 179.72736894 336.13340759 175.12025452 C332.83340759 175.12025452 329.53340759 175.12025452 326.13340759 175.12025452 C325.80340759 167.86025452 325.47340759 160.60025452 325.13340759 153.12025452 C324.14340759 153.12025452 323.15340759 153.12025452 322.13340759 153.12025452 C322.13340759 150.15025452 322.13340759 147.18025452 322.13340759 144.12025452 C320.48340759 144.45025452 318.83340759 144.78025452 317.13340759 145.12025452 C316.80340759 159.97025452 316.47340759 174.82025452 316.13340759 190.12025452 C284.45340759 190.12025452 252.77340759 190.12025452 220.13340759 190.12025452 C218.98413561 165.98554285 218.98413561 165.98554285 219.03575134 157.88197327 C219.03787376 156.52819328 219.03787376 156.52819328 219.04003906 155.14706421 C219.0454732 152.36725494 219.05798744 149.58753786 219.07090759 146.80775452 C219.07594423 144.88002133 219.08050323 142.95228684 219.08457947 141.02455139 C219.09452118 136.3897249 219.11412257 131.75508823 219.13340759 127.12025452 C210.55340759 127.12025452 201.97340759 127.12025452 193.13340759 127.12025452 C193.13340759 147.91025452 193.13340759 168.70025452 193.13340759 190.12025452 C168.46648985 190.16036333 168.46648985 190.16036333 157.99082947 190.16908264 C150.82928226 190.17507162 143.66774779 190.18217336 136.50621033 190.19569397 C130.7355733 190.20652105 124.96494991 190.21253097 119.19430351 190.21513176 C116.98737816 190.21698633 114.78045359 190.22060756 112.57353401 190.22598457 C109.49394718 190.23319262 106.41441745 190.23424556 103.33482361 190.23377991 C102.41269577 190.23737518 101.49056793 190.24097046 100.54049683 190.24467468 C94.24745975 190.23430668 94.24745975 190.23430668 93.13340759 189.12025452 C93.03964706 187.30970426 93.0159665 185.4954825 93.0198822 183.68251038 C93.0199955 181.94081825 93.0199955 181.94081825 93.02011108 180.16394043 C93.02527237 178.90042252 93.03043365 177.6369046 93.03575134 176.33509827 C93.03716629 175.04914261 93.03858124 173.76318695 93.04003906 172.43826294 C93.04386341 169.01382009 93.05369297 165.58941943 93.06474304 162.16499329 C93.07495895 158.67287263 93.07953707 155.18074518 93.08457947 151.68861389 C93.09531533 144.83247673 93.11239075 137.97636765 93.13340759 131.12025452 C91.48340759 131.45025452 89.83340759 131.78025452 88.13340759 132.12025452 C87.80340759 134.43025452 87.47340759 136.74025452 87.13340759 139.12025452 C82.1671841 139.14490549 77.20099593 139.163091 72.23472595 139.17518616 C70.54396444 139.18022641 68.8532073 139.18705857 67.16246033 139.19569397 C64.73740052 139.20777308 62.31239815 139.21348575 59.88731384 139.21791077 C58.74668236 139.22565269 58.74668236 139.22565269 57.58300781 139.23355103 C55.76608189 139.23374689 53.94927632 139.18222728 52.13340759 139.12025452 C51.13340759 138.12025452 51.13340759 138.12025452 51.07090759 135.05775452 C51.09153259 134.08837952 51.11215759 133.11900452 51.13340759 132.12025452 C49.15340759 132.12025452 47.17340759 132.12025452 45.13340759 132.12025452 C45.1356282 132.83213425 45.13784882 133.54401398 45.14013672 134.27746582 C45.16014013 140.97299687 45.17538198 147.66851962 45.18521976 154.36407375 C45.19044741 157.806658 45.1975429 161.24921764 45.20884705 164.69178772 C45.22174994 168.64580495 45.22663677 172.59981207 45.23106384 176.55384827 C45.23622513 177.7954924 45.24138641 179.03713654 45.2467041 180.31640625 C45.24677963 181.45751358 45.24685516 182.59862091 45.24693298 183.77430725 C45.24915359 184.78468552 45.25137421 185.79506378 45.25366211 186.83605957 C45.13340759 189.12025452 45.13340759 189.12025452 44.13340759 190.12025452 C42.66535467 190.21848196 41.19263299 190.24823822 39.72129822 190.24964905 C38.7836261 190.25280121 37.84595398 190.25595337 36.87986755 190.25920105 C35.86009827 190.25717682 34.84032898 190.25515259 33.78965759 190.25306702 C32.23051636 190.25450211 32.23051636 190.25450211 30.63987732 190.25596619 C28.43736206 190.25664814 26.2348448 190.25479278 24.03233337 190.25062561 C20.6480104 190.24527759 17.26382015 190.2505701 13.87950134 190.25697327 C11.74538646 190.25631249 9.61127167 190.25503133 7.47715759 190.25306702 C6.45738831 190.25509125 5.43761902 190.25711548 4.38694763 190.25920105 C2.98043945 190.25447281 2.98043945 190.25447281 1.54551697 190.24964905 C0.71580383 190.24885345 -0.1139093 190.24805786 -0.96876526 190.24723816 C-2.86659241 190.12025452 -2.86659241 190.12025452 -3.86659241 189.12025452 C-3.96586507 186.86676336 -3.99291681 184.61009252 -3.99357605 182.35441589 C-3.99513604 181.63853392 -3.99669603 180.92265196 -3.99830329 180.18507659 C-4.00231619 177.76777819 -3.9991224 175.35054175 -3.99598694 172.9332428 C-3.99734097 171.20712243 -3.99912091 169.48100234 -4.001297 167.75488281 C-4.0058745 163.04980089 -4.00407958 158.34474078 -4.00091791 153.63965845 C-3.99839189 148.71602474 -4.00073291 143.79239294 -4.00230408 138.86875916 C-4.00412677 130.58800419 -4.00171864 122.30725813 -3.9969635 114.02650452 C-3.99153863 104.4694688 -3.99327018 94.91245447 -3.99878991 85.35541928 C-4.00333966 77.14807456 -4.00396194 68.94073626 -4.00135124 60.73339069 C-3.99979639 55.83305631 -3.99957258 50.93273195 -4.00288773 46.03239822 C-4.00579286 41.41465579 -4.00374248 36.79694064 -3.99799347 32.17920113 C-3.99667921 30.49063601 -3.99703712 28.80206858 -3.99925613 27.11350441 C-4.02189981 8.11951536 -4.02189981 8.11951536 -2.86659241 1.12025452 C-1.86659241 0.12025452 -1.86659241 0.12025452 0 0 Z " fill="#030404" transform="translate(112.86659240722656,112.87974548339844)"/>
<path d="M0 0 C9.24 0 18.48 0 28 0 C28 51.15 28 102.3 28 155 C18.43 155 8.86 155 -1 155 C-1 127.28 -1 99.56 -1 71 C-3.64 71 -6.28 71 -9 71 C-9.33 73.97 -9.66 76.94 -10 80 C-12.31 80 -14.62 80 -17 80 C-17 84.62 -17 89.24 -17 94 C-20.3 93.67 -23.6 93.34 -27 93 C-27 95.97 -27 98.94 -27 102 C-31.95 102 -36.9 102 -42 102 C-42.495 98.535 -42.495 98.535 -43 95 C-45.97 94.67 -48.94 94.34 -52 94 C-52 89.05 -52 84.1 -52 79 C-54.97 79 -57.94 79 -61 79 C-61 76.03 -61 73.06 -61 70 C-63.64 70 -66.28 70 -69 70 C-69 98.05 -69 126.1 -69 155 C-78.24 155 -87.48 155 -97 155 C-98 154 -98 154 -98.12304783 151.48749447 C-98.12212604 150.36014165 -98.12120424 149.23278883 -98.12025452 148.0712738 C-98.12162918 146.78253357 -98.12300385 145.49379333 -98.12442017 144.16600037 C-98.12088055 142.72451759 -98.11724573 141.28303505 -98.11352539 139.84155273 C-98.11324353 138.33403526 -98.11340123 136.82651764 -98.1139679 135.31900024 C-98.11425591 131.21380656 -98.10835861 127.10864185 -98.10139394 123.00345492 C-98.09516099 118.7179674 -98.09455665 114.43247928 -98.09336853 110.14698792 C-98.09025504 102.02613348 -98.08204141 93.90529244 -98.07201904 85.78444391 C-98.06085845 76.54155126 -98.05534759 67.29865798 -98.05032361 58.05576026 C-98.03985881 39.03716569 -98.02205862 20.01858441 -98 1 C-88.76 1 -79.52 1 -70 1 C-70 3.97 -70 6.94 -70 10 C-67.03 10 -64.06 10 -61 10 C-61 15.28 -61 20.56 -61 26 C-58.03 26 -55.06 26 -52 26 C-52 30.95 -52 35.9 -52 41 C-48.7 41 -45.4 41 -42 41 C-42 43.64 -42 46.28 -42 49 C-36.72 49 -31.44 49 -26 49 C-26 46.03 -26 43.06 -26 40 C-23.03 40 -20.06 40 -17 40 C-17 35.38 -17 30.76 -17 26 C-14.36 26 -11.72 26 -9 26 C-9 20.72 -9 15.44 -9 10 C-3 10 -3 10 -1 11 C-1.01160156 10.28972656 -1.02320313 9.57945312 -1.03515625 8.84765625 C-1.04417969 7.92855469 -1.05320312 7.00945312 -1.0625 6.0625 C-1.07410156 5.14597656 -1.08570313 4.22945313 -1.09765625 3.28515625 C-1 1 -1 1 0 0 Z " fill="#EBD6A6" transform="translate(217,123)"/>
<path d="M0 0 C10.56 0 21.12 0 32 0 C32 19.47 32 38.94 32 59 C46.85 59 61.7 59 77 59 C77 39.86 77 20.72 77 1 C86.9 1 96.8 1 107 1 C107 51.82 107 102.64 107 155 C97.1 155 87.2 155 77 155 C77 133.88 77 112.76 77 91 C62.15 91 47.3 91 32 91 C32 112.12 32 133.24 32 155 C21.44 155 10.88 155 0 155 C0 103.85 0 52.7 0 0 Z " fill="#ECD6A6" transform="translate(265,123)"/>
<path d="M0 0 C9.9 0 19.8 0 30 0 C30 15.84 30 31.68 30 48 C34.95 48 39.9 48 45 48 C45 45.03 45 42.06 45 39 C47.97 39 50.94 39 54 39 C54 34.05 54 29.1 54 24 C56.64 24.33 59.28 24.66 62 25 C62 19.72 62 14.44 62 9 C64.64 9 67.28 9 70 9 C70 6.03 70 3.06 70 0 C80.89 0 91.78 0 103 0 C103 5.61 103 11.22 103 17 C100.36 17 97.72 17 95 17 C95 19.64 95 22.28 95 25 C91.7 25 88.4 25 85 25 C85 29.95 85 34.9 85 40 C82.69 40 80.38 40 78 40 C78 42.64 78 45.28 78 48 C75.36 48 72.72 48 70 48 C70 51.3 70 54.6 70 58 C67.36 58 64.72 58 62 58 C62 61.3 62 64.6 62 68 C59.03 68 56.06 68 53 68 C53 70.97 53 73.94 53 77 C55.97 77 58.94 77 62 77 C62 79.64 62 82.28 62 85 C64.64 85 67.28 85 70 85 C70 89.62 70 94.24 70 99 C72.64 99.33 75.28 99.66 78 100 C78 102.31 78 104.62 78 107 C80.64 107.33 83.28 107.66 86 108 C86 111.63 86 115.26 86 119 C88.64 119 91.28 119 94 119 C94 123.62 94 128.24 94 133 C96.97 133 99.94 133 103 133 C103 139.6 103 146.2 103 153 C92.11 153 81.22 153 70 153 C70 145.74 70 138.48 70 131 C67.36 131 64.72 131 62 131 C62 126.05 62 121.1 62 116 C59.03 116 56.06 116 53 116 C53 113.36 53 110.72 53 108 C50.03 107.67 47.06 107.34 44 107 C43.67 102.71 43.34 98.42 43 94 C38.71 93.67 34.42 93.34 30 93 C30 113.13 30 133.26 30 154 C20.1 154 10.2 154 0 154 C0 103.18 0 52.36 0 0 Z " fill="#EDD7A7" transform="translate(389,124)"/>
<path d="M0 0 C0.33 0 0.66 0 1 0 C1.33 49.17 1.66 98.34 2 149 C5.39764076 149.84941019 7.7697327 150.11761783 11.203125 150.09765625 C12.1828125 150.09443359 13.1625 150.09121094 14.171875 150.08789062 C15.18765625 150.07951172 16.2034375 150.07113281 17.25 150.0625 C18.28125 150.05798828 19.3125 150.05347656 20.375 150.04882812 C22.91672573 150.03706088 25.45833319 150.02062011 28 150 C27.9830307 149.31539703 27.9660614 148.63079407 27.94857788 147.92544556 C27.77446806 140.82098375 27.61451047 133.71630477 27.46289062 126.61132812 C27.40437399 123.9572736 27.34220904 121.30329697 27.27636719 118.64941406 C27.18253104 114.84194112 27.10167889 111.03438377 27.0234375 107.2265625 C26.99124115 106.03382721 26.9590448 104.84109192 26.9258728 103.61221313 C26.90570099 102.51122284 26.88552917 101.41023254 26.86474609 100.27587891 C26.84253998 99.30325104 26.82033386 98.33062317 26.79745483 97.32852173 C27 95 27 95 29 93 C29 112.8 29 132.6 29 153 C19.43 152.67 9.86 152.34 0 152 C0 101.84 0 51.68 0 0 Z " fill="#EFE0B9" transform="translate(390,125)"/>
<path d="M0 0 C0.33 0 0.66 0 1 0 C1.33 48.84 1.66 97.68 2 148 C3.65 148 5.3 148 7 148 C7.33 148.33 7.66 148.66 8 149 C9.41327947 149.15620555 10.8335459 149.25056173 12.25390625 149.31640625 C13.10791016 149.35830078 13.96191406 149.40019531 14.84179688 149.44335938 C15.73962891 149.48267578 16.63746094 149.52199219 17.5625 149.5625 C18.46419922 149.60568359 19.36589844 149.64886719 20.29492188 149.69335938 C22.52978485 149.79978142 24.76476308 149.90179988 27 150 C27 150.33 27 150.66 27 151 C18.09 151 9.18 151 0 151 C0 101.17 0 51.34 0 0 Z " fill="#EDE0B7" transform="translate(120,126)"/>
<path d="M0 0 C0.33 0 0.66 0 1 0 C1 14.19 1 28.38 1 43 C-9.56 43 -20.12 43 -31 43 C-31 42.67 -31 42.34 -31 42 C-30.12674072 41.97494385 -29.25348145 41.9498877 -28.35375977 41.92407227 C-25.12397448 41.82912291 -21.89435846 41.72987971 -18.66479492 41.62768555 C-17.26510801 41.58428566 -15.86536641 41.54261436 -14.46557617 41.50268555 C-12.45738505 41.44510555 -10.44938851 41.38086 -8.44140625 41.31640625 C-6.62684937 41.26141968 -6.62684937 41.26141968 -4.77563477 41.20532227 C-2.09294544 41.31061734 -2.09294544 41.31061734 -1 40 C-0.83970312 37.04470496 -0.74042672 34.11017543 -0.68359375 31.15234375 C-0.66281265 30.2659169 -0.64203156 29.37949005 -0.62062073 28.46620178 C-0.555026 25.623383 -0.49619448 22.78046883 -0.4375 19.9375 C-0.3943242 18.01496394 -0.35071022 16.09243766 -0.30664062 14.16992188 C-0.19933457 9.44671332 -0.09809549 4.72340847 0 0 Z " fill="#00092D" transform="translate(428,260)"/>
<path d="M0 0 C2.64 0 5.28 0 8 0 C8 3.63 8 7.26 8 11 C10.64 11 13.28 11 16 11 C16 15.62 16 20.24 16 25 C15.67 25 15.34 25 15 25 C15 21.04 15 17.08 15 13 C13.68 13.33 12.36 13.66 11 14 C9.68 13.34 8.36 12.68 7 12 C7 8.7 7 5.4 7 2 C4.69 1.67 2.38 1.34 0 1 C0 0.67 0 0.34 0 0 Z " fill="#E7D9B6" transform="translate(467,232)"/>
<path d="M0 0 C2.31 0 4.62 0 7 0 C7.33 0.66 7.66 1.32 8 2 C5.69 2.33 3.38 2.66 1 3 C1.165 3.495 1.33 3.99 1.5 4.5 C2.20688818 8.03444089 2.06005155 11.39690701 2 15 C1.01 15.495 1.01 15.495 0 16 C0 10.72 0 5.44 0 0 Z " fill="#E8D9B2" transform="translate(452,133)"/>
<path d="M0 0 C2.97 0 5.94 0 9 0 C9 5.28 9 10.56 9 16 C8.67 16 8.34 16 8 16 C8 11.05 8 6.1 8 1 C6.02 1.66 4.04 2.32 2 3 C1.34 2.01 0.68 1.02 0 0 Z " fill="#EBDEB8" transform="translate(156,149)"/>
<path d="M0 0 C1.65 0 3.3 0 5 0 C4.67 4.29 4.34 8.58 4 13 C1.21362367 8.8204355 2.20437488 6.85331323 3 2 C2.01 2.33 1.02 2.66 0 3 C0 2.01 0 1.02 0 0 Z " fill="#D6C8A7" transform="translate(454,209)"/>
<path d="M0 0 C2.31 0 4.62 0 7 0 C6.360625 0.165 5.72125 0.33 5.0625 0.5 C2.83880759 1.781786 2.83880759 1.781786 2.51171875 3.9140625 C2.2724022 5.93575155 2.13106972 7.96841939 2 10 C1.34 10 0.68 10 0 10 C0 6.7 0 3.4 0 0 Z " fill="#D2C3A2" transform="translate(216,124)"/>
<path d="M0 0 C2.97 0 5.94 0 9 0 C9 0.33 9 0.66 9 1 C7.02 1 5.04 1 3 1 C3 2.65 3 4.3 3 6 C2.01 6 1.02 6 0 6 C0 4.02 0 2.04 0 0 Z " fill="#010910" transform="translate(189,140)"/>
<path d="M0 0 C0.33 0 0.66 0 1 0 C1 2.64 1 5.28 1 8 C-0.32 8 -1.64 8 -3 8 C-1.125 2.25 -1.125 2.25 0 0 Z " fill="#F0DFBB" transform="translate(206,195)"/>
<path d="M0 0 C3.96 1.98 3.96 1.98 8 4 C8 4.33 8 4.66 8 5 C5.36 5 2.72 5 0 5 C0 3.35 0 1.7 0 0 Z " fill="#ECDCB6" transform="translate(157,196)"/>
<path d="M0 0 C1.65 0 3.3 0 5 0 C5 2.31 5 4.62 5 7 C4.34 7 3.68 7 3 7 C2.814375 5.824375 2.814375 5.824375 2.625 4.625 C2.20882007 1.85942178 2.20882007 1.85942178 0 0 Z " fill="#EDDCB3" transform="translate(169,165)"/>
<path d="M0 0 C0.33 0 0.66 0 1 0 C1 3.96 1 7.92 1 12 C0.01 12 -0.98 12 -2 12 C-1.34 8.04 -0.68 4.08 0 0 Z " fill="#EADAB2" transform="translate(243,265)"/>
</svg>
